<svg width="146" height="101" viewBox="0 0 146 101" fill="none" xmlns="http://www.w3.org/2000/svg">
<path d="M82.9522 0.46933C81.1272 1.03652 80.0436 1.72187 76.9354 4.36874C73.3424 7.37011 72.6295 8.43359 72.6295 10.7969C72.6295 13.7273 72.2303 13.302 89.7674 27.8598L105.651 41.0469H56.119C7.01509 41.0469 6.55885 41.0469 5.019 41.5195C2.90885 42.1813 1.05533 43.8355 0.427987 45.6316C0.0572839 46.6951 -0.028263 47.7822 0.0572839 50.9254C0.142831 54.3521 0.228378 55.0139 0.770174 55.9592C1.48307 57.2826 3.16549 58.7479 4.70533 59.3623C5.81744 59.835 6.844 59.835 55.8338 59.9531L105.793 60.0713L89.8245 73.3057C72.2303 87.8871 72.601 87.509 72.6295 90.3686C72.6581 92.6373 73.5135 93.8662 77.3346 96.9621C81.3268 100.223 82.3534 100.72 85.262 100.72C87.0299 100.696 87.6573 100.602 88.8264 100.082C90.737 99.2309 144.517 54.6357 145.316 53.2178C146.114 51.7998 146.057 49.0584 145.173 47.6404C144.261 46.1279 90.1952 1.36738 88.5698 0.75293C87.087 0.209375 84.2639 0.067572 82.9522 0.46933Z" fill="#5A6ACF"/>
</svg>
