<?xml version="1.0" standalone="no"?>
<!DOCTYPE svg PUBLIC "-//W3C//DTD SVG 20010904//EN"
 "http://www.w3.org/TR/2001/REC-SVG-20010904/DTD/svg10.dtd">
<svg version="1.0" xmlns="http://www.w3.org/2000/svg"
 width="512.000000pt" height="512.000000pt" viewBox="0 0 512.000000 512.000000"
 preserveAspectRatio="xMidYMid meet">

<g transform="translate(0.000000,512.000000) scale(0.100000,-0.100000)"
fill="#000000" stroke="none">
<path d="M3882 4789 c-23 -4 -70 -20 -105 -35 -56 -25 -97 -63 -427 -391
l-366 -363 -1120 0 c-973 0 -1127 -2 -1179 -15 -172 -45 -305 -179 -350 -352
-23 -86 -23 -2860 0 -2946 45 -173 178 -307 350 -352 52 -13 236 -15 1475 -15
1558 0 1470 -3 1591 61 70 38 157 126 193 197 58 115 56 68 56 1286 l0 1120
359 361 c327 327 363 366 391 427 62 132 63 275 4 409 -24 56 -55 92 -257 296
-244 246 -284 277 -402 308 -64 16 -144 18 -213 4z m-694 -2166 l-903 -903
-282 282 -283 283 902 902 903 903 282 -282 283 -283 -902 -902z m-1170 410
l-648 -648 -195 -565 c-134 -389 -195 -578 -195 -608 0 -76 44 -132 122 -152
35 -10 94 3 649 145 335 85 613 155 617 155 4 0 300 294 659 653 l653 652 -2
-961 -3 -961 -27 -35 c-56 -74 64 -69 -1501 -66 l-1404 3 -37 29 c-71 53 -66
-51 -66 1485 0 960 3 1398 11 1418 14 37 47 73 84 89 24 11 211 13 980 14
l950 0 -647 -647z m-254 -1252 c103 -104 184 -191 180 -194 -12 -7 -526 -137
-543 -137 -7 0 -11 6 -9 13 3 6 43 123 89 259 46 136 86 248 89 248 3 0 90
-85 194 -189z"/>
</g>
</svg>
